<svg xmlns="http://www.w3.org/2000/svg" xmlns:xlink="http://www.w3.org/1999/xlink" contentStyleType="text/css" data-diagram-type="ACTIVITY" height="985px" preserveAspectRatio="none" style="width:1339px;height:985px;background:#FFFFFF;" version="1.1" viewBox="0 0 1339 985" width="1339px" zoomAndPan="magnify"><defs/><g><ellipse cx="653.1797" cy="20" fill="#222222" rx="10" ry="10" style="stroke:#222222;stroke-width:1;"/><rect fill="#F1F1F1" height="33.9688" rx="12.5" ry="12.5" style="stroke:#181818;stroke-width:0.5;" width="307.7305" x="499.3145" y="50"/><text fill="#000000" font-family="sans-serif" font-size="12" lengthAdjust="spacing" textLength="287.7305" x="509.3145" y="71.1387">Retrieve ConnectivityManager and WifiManager</text><rect fill="#F1F1F1" height="33.9688" rx="12.5" ry="12.5" style="stroke:#181818;stroke-width:0.5;" width="187.8066" x="559.2764" y="103.9688"/><text fill="#000000" font-family="sans-serif" font-size="12" lengthAdjust="spacing" textLength="167.8066" x="569.2764" y="125.1074">Fetch all available networks</text><rect fill="#F1F1F1" height="33.9688" rx="12.5" ry="12.5" style="stroke:#181818;stroke-width:0.5;" width="165.3008" x="570.5293" y="201.9375"/><text fill="#000000" font-family="sans-serif" font-size="12" lengthAdjust="spacing" textLength="145.3008" x="580.5293" y="223.0762">Get NetworkCapabilities</text><polygon fill="#F1F1F1" points="221.3782,311.6167,312.241,311.6167,324.241,323.6167,312.241,335.6167,221.3782,335.6167,209.3782,323.6167,221.3782,311.6167" style="stroke:#181818;stroke-width:0.5;"/><text fill="#000000" font-family="sans-serif" font-size="11" lengthAdjust="spacing" textLength="19.0083" x="270.8096" y="345.8271">yes</text><text fill="#000000" font-family="sans-serif" font-size="11" lengthAdjust="spacing" textLength="90.8628" x="221.3782" y="327.4248">Network is WiFi?</text><rect fill="#F1F1F1" height="33.9688" rx="12.5" ry="12.5" style="stroke:#181818;stroke-width:0.5;" width="156.6934" x="188.4629" y="367.3271"/><text fill="#000000" font-family="sans-serif" font-size="12" lengthAdjust="spacing" textLength="136.6934" x="198.4629" y="388.4658">Check if Captive Portal</text><polygon fill="#F1F1F1" points="225.1191,421.2959,308.5,421.2959,320.5,433.2959,308.5,445.2959,225.1191,445.2959,213.1191,433.2959,225.1191,421.2959" style="stroke:#181818;stroke-width:0.5;"/><text fill="#000000" font-family="sans-serif" font-size="11" lengthAdjust="spacing" textLength="83.3809" x="225.1191" y="437.104">Captive Portal?</text><text fill="#000000" font-family="sans-serif" font-size="11" lengthAdjust="spacing" textLength="19.0083" x="194.1108" y="430.7017">yes</text><text fill="#000000" font-family="sans-serif" font-size="11" lengthAdjust="spacing" textLength="13.7017" x="320.5" y="430.7017">no</text><rect fill="#F1F1F1" height="33.9688" rx="12.5" ry="12.5" style="stroke:#181818;stroke-width:0.5;" width="167.4629" x="11" y="455.2959"/><text fill="#000000" font-family="sans-serif" font-size="12" lengthAdjust="spacing" textLength="147.4629" x="21" y="476.4346">Mark network as captive</text><rect fill="#F1F1F1" height="33.9688" rx="12.5" ry="12.5" style="stroke:#181818;stroke-width:0.5;" width="217.7891" x="330.4492" y="455.2959"/><text fill="#000000" font-family="sans-serif" font-size="12" lengthAdjust="spacing" textLength="197.7891" x="340.4492" y="476.4346">Retrieve SSID using WifiManager</text><rect fill="#F1F1F1" height="33.9688" rx="12.5" ry="12.5" style="stroke:#181818;stroke-width:0.5;" width="241.9941" x="318.3467" y="524.2646"/><text fill="#000000" font-family="sans-serif" font-size="12" lengthAdjust="spacing" textLength="221.9941" x="328.3467" y="545.4033">Check if SSID matches 'IIITKottayam'</text><polygon fill="#F1F1F1" points="398.8054,578.2334,479.8821,578.2334,491.8821,590.2334,479.8821,602.2334,398.8054,602.2334,386.8054,590.2334,398.8054,578.2334" style="stroke:#181818;stroke-width:0.5;"/><text fill="#000000" font-family="sans-serif" font-size="11" lengthAdjust="spacing" textLength="81.0767" x="398.8054" y="594.0415">SSID Matches?</text><text fill="#000000" font-family="sans-serif" font-size="11" lengthAdjust="spacing" textLength="19.0083" x="367.7971" y="587.6392">yes</text><text fill="#000000" font-family="sans-serif" font-size="11" lengthAdjust="spacing" textLength="13.7017" x="491.8821" y="587.6392">no</text><rect fill="#F1F1F1" height="33.9688" rx="12.5" ry="12.5" style="stroke:#181818;stroke-width:0.5;" width="208.4375" x="208.0068" y="612.2334"/><text fill="#000000" font-family="sans-serif" font-size="12" lengthAdjust="spacing" textLength="188.4375" x="218.0068" y="633.3721">Return LoginState.CONNECTED</text><rect fill="#F1F1F1" height="33.9688" rx="12.5" ry="12.5" style="stroke:#181818;stroke-width:0.5;" width="260.0352" x="436.4443" y="612.2334"/><text fill="#000000" font-family="sans-serif" font-size="12" lengthAdjust="spacing" textLength="240.0352" x="446.4443" y="633.3721">Return LoginState.WIFINOTCONNECTED</text><polygon fill="#F1F1F1" points="439.3438,652.2021,451.3438,664.2021,439.3438,676.2021,427.3438,664.2021,439.3438,652.2021" style="stroke:#181818;stroke-width:0.5;"/><polygon fill="#F1F1F1" points="266.8096,682.2021,278.8096,694.2021,266.8096,706.2021,254.8096,694.2021,266.8096,682.2021" style="stroke:#181818;stroke-width:0.5;"/><polygon fill="#F1F1F1" points="784.1973,311.6167,893.5957,311.6167,905.5957,323.6167,893.5957,335.6167,784.1973,335.6167,772.1973,323.6167,784.1973,311.6167" style="stroke:#181818;stroke-width:0.5;"/><text fill="#000000" font-family="sans-serif" font-size="11" lengthAdjust="spacing" textLength="19.0083" x="842.8965" y="345.8271">yes</text><text fill="#000000" font-family="sans-serif" font-size="11" lengthAdjust="spacing" textLength="109.3984" x="784.1973" y="327.4248">Network is Cellular?</text><rect fill="#F1F1F1" height="33.9688" rx="12.5" ry="12.5" style="stroke:#181818;stroke-width:0.5;" width="204.834" x="736.4795" y="367.3271"/><text fill="#000000" font-family="sans-serif" font-size="12" lengthAdjust="spacing" textLength="184.834" x="746.4795" y="388.4658">Display "Mobile Data Network"</text><polygon fill="#F1F1F1" points="985.0596,311.6167,1074.9932,311.6167,1086.9932,323.6167,1074.9932,335.6167,985.0596,335.6167,973.0596,323.6167,985.0596,311.6167" style="stroke:#181818;stroke-width:0.5;"/><text fill="#000000" font-family="sans-serif" font-size="11" lengthAdjust="spacing" textLength="19.0083" x="1034.0264" y="345.8271">yes</text><text fill="#000000" font-family="sans-serif" font-size="11" lengthAdjust="spacing" textLength="89.9336" x="985.0596" y="327.4248">Network is VPN?</text><rect fill="#F1F1F1" height="33.9688" rx="12.5" ry="12.5" style="stroke:#181818;stroke-width:0.5;" width="157.4258" x="951.3135" y="367.3271"/><text fill="#000000" font-family="sans-serif" font-size="12" lengthAdjust="spacing" textLength="137.4258" x="961.3135" y="388.4658">Display "VPN Network"</text><rect fill="#F1F1F1" height="33.9688" rx="12.5" ry="12.5" style="stroke:#181818;stroke-width:0.5;" width="167.0762" x="1118.7393" y="516.3779"/><text fill="#000000" font-family="sans-serif" font-size="12" lengthAdjust="spacing" textLength="147.0762" x="1128.7393" y="537.5166">Display "Other Network"</text><polygon fill="#F1F1F1" points="568.6414,255.9063,737.718,255.9063,749.718,267.9063,737.718,279.9063,568.6414,279.9063,556.6414,267.9063,568.6414,255.9063" style="stroke:#181818;stroke-width:0.5;"/><text fill="#000000" font-family="sans-serif" font-size="11" lengthAdjust="spacing" textLength="19.0083" x="657.1797" y="290.1167">yes</text><text fill="#000000" font-family="sans-serif" font-size="11" lengthAdjust="spacing" textLength="169.0767" x="568.6414" y="271.7144">NetworkCapabilities available?</text><polygon fill="#F1F1F1" points="653.1797,746.2021,665.1797,758.2021,653.1797,770.2021,641.1797,758.2021,653.1797,746.2021" style="stroke:#181818;stroke-width:0.5;"/><polygon fill="#F1F1F1" points="653.1797,157.9375,665.1797,169.9375,653.1797,181.9375,641.1797,169.9375,653.1797,157.9375" style="stroke:#181818;stroke-width:0.5;"/><polygon fill="#F1F1F1" points="584.4351,790.2021,721.9243,790.2021,733.9243,802.2021,721.9243,814.2021,584.4351,814.2021,572.4351,802.2021,584.4351,790.2021" style="stroke:#181818;stroke-width:0.5;"/><text fill="#000000" font-family="sans-serif" font-size="11" lengthAdjust="spacing" textLength="137.4893" x="584.4351" y="806.0103">More networks to check?</text><polygon fill="#F1F1F1" points="590.7085,834.2021,715.6509,834.2021,727.6509,846.2021,715.6509,858.2021,590.7085,858.2021,578.7085,846.2021,590.7085,834.2021" style="stroke:#181818;stroke-width:0.5;"/><text fill="#000000" font-family="sans-serif" font-size="11" lengthAdjust="spacing" textLength="124.9424" x="590.7085" y="850.0103">Any network selected?</text><text fill="#000000" font-family="sans-serif" font-size="11" lengthAdjust="spacing" textLength="19.0083" x="559.7002" y="843.6079">yes</text><text fill="#000000" font-family="sans-serif" font-size="11" lengthAdjust="spacing" textLength="13.7017" x="727.6509" y="843.6079">no</text><rect fill="#F1F1F1" height="33.9688" rx="12.5" ry="12.5" style="stroke:#181818;stroke-width:0.5;" width="157.5664" x="459.9961" y="868.2021"/><text fill="#000000" font-family="sans-serif" font-size="12" lengthAdjust="spacing" textLength="137.5664" x="469.9961" y="889.3408">Print Selected Network</text><rect fill="#F1F1F1" height="33.9688" rx="12.5" ry="12.5" style="stroke:#181818;stroke-width:0.5;" width="260.0352" x="637.5625" y="868.2021"/><text fill="#000000" font-family="sans-serif" font-size="12" lengthAdjust="spacing" textLength="240.0352" x="647.5625" y="889.3408">Return LoginState.WIFINOTCONNECTED</text><polygon fill="#F1F1F1" points="653.1797,908.1709,665.1797,920.1709,653.1797,932.1709,641.1797,920.1709,653.1797,908.1709" style="stroke:#181818;stroke-width:0.5;"/><ellipse cx="653.1797" cy="963.1709" fill="none" rx="11" ry="11" style="stroke:#222222;stroke-width:1;"/><ellipse cx="653.1797" cy="963.1709" fill="#222222" rx="6" ry="6" style="stroke:#222222;stroke-width:1;"/><line style="stroke:#181818;stroke-width:1;" x1="653.1797" x2="653.1797" y1="30" y2="50"/><polygon fill="#181818" points="649.1797,40,653.1797,50,657.1797,40,653.1797,44" style="stroke:#181818;stroke-width:1;"/><line style="stroke:#181818;stroke-width:1;" x1="653.1797" x2="653.1797" y1="83.9688" y2="103.9688"/><polygon fill="#181818" points="649.1797,93.9688,653.1797,103.9688,657.1797,93.9688,653.1797,97.9688" style="stroke:#181818;stroke-width:1;"/><line style="stroke:#181818;stroke-width:1;" x1="439.3438" x2="439.3438" y1="489.2646" y2="524.2646"/><polygon fill="#181818" points="435.3438,514.2646,439.3438,524.2646,443.3438,514.2646,439.3438,518.2646" style="stroke:#181818;stroke-width:1;"/><line style="stroke:#181818;stroke-width:1;" x1="386.8054" x2="312.2256" y1="590.2334" y2="590.2334"/><line style="stroke:#181818;stroke-width:1;" x1="312.2256" x2="312.2256" y1="590.2334" y2="612.2334"/><polygon fill="#181818" points="308.2256,602.2334,312.2256,612.2334,316.2256,602.2334,312.2256,606.2334" style="stroke:#181818;stroke-width:1;"/><line style="stroke:#181818;stroke-width:1;" x1="491.8821" x2="566.4619" y1="590.2334" y2="590.2334"/><line style="stroke:#181818;stroke-width:1;" x1="566.4619" x2="566.4619" y1="590.2334" y2="612.2334"/><polygon fill="#181818" points="562.4619,602.2334,566.4619,612.2334,570.4619,602.2334,566.4619,606.2334" style="stroke:#181818;stroke-width:1;"/><line style="stroke:#181818;stroke-width:1;" x1="312.2256" x2="312.2256" y1="646.2021" y2="664.2021"/><line style="stroke:#181818;stroke-width:1;" x1="312.2256" x2="427.3438" y1="664.2021" y2="664.2021"/><polygon fill="#181818" points="417.3438,660.2021,427.3438,664.2021,417.3438,668.2021,421.3438,664.2021" style="stroke:#181818;stroke-width:1;"/><line style="stroke:#181818;stroke-width:1;" x1="566.4619" x2="566.4619" y1="646.2021" y2="664.2021"/><line style="stroke:#181818;stroke-width:1;" x1="566.4619" x2="451.3438" y1="664.2021" y2="664.2021"/><polygon fill="#181818" points="461.3438,660.2021,451.3438,664.2021,461.3438,668.2021,457.3438,664.2021" style="stroke:#181818;stroke-width:1;"/><line style="stroke:#181818;stroke-width:1;" x1="439.3438" x2="439.3438" y1="558.2334" y2="578.2334"/><polygon fill="#181818" points="435.3438,568.2334,439.3438,578.2334,443.3438,568.2334,439.3438,572.2334" style="stroke:#181818;stroke-width:1;"/><line style="stroke:#181818;stroke-width:1;" x1="213.1191" x2="94.7314" y1="433.2959" y2="433.2959"/><line style="stroke:#181818;stroke-width:1;" x1="94.7314" x2="94.7314" y1="433.2959" y2="455.2959"/><polygon fill="#181818" points="90.7314,445.2959,94.7314,455.2959,98.7314,445.2959,94.7314,449.2959" style="stroke:#181818;stroke-width:1;"/><line style="stroke:#181818;stroke-width:1;" x1="320.5" x2="439.3438" y1="433.2959" y2="433.2959"/><line style="stroke:#181818;stroke-width:1;" x1="439.3438" x2="439.3438" y1="433.2959" y2="455.2959"/><polygon fill="#181818" points="435.3438,445.2959,439.3438,455.2959,443.3438,445.2959,439.3438,449.2959" style="stroke:#181818;stroke-width:1;"/><line style="stroke:#181818;stroke-width:1;" x1="94.7314" x2="94.7314" y1="489.2646" y2="694.2021"/><line style="stroke:#181818;stroke-width:1;" x1="94.7314" x2="254.8096" y1="694.2021" y2="694.2021"/><polygon fill="#181818" points="244.8096,690.2021,254.8096,694.2021,244.8096,698.2021,248.8096,694.2021" style="stroke:#181818;stroke-width:1;"/><line style="stroke:#181818;stroke-width:1;" x1="439.3438" x2="439.3438" y1="676.2021" y2="694.2021"/><line style="stroke:#181818;stroke-width:1;" x1="439.3438" x2="278.8096" y1="694.2021" y2="694.2021"/><polygon fill="#181818" points="288.8096,690.2021,278.8096,694.2021,288.8096,698.2021,284.8096,694.2021" style="stroke:#181818;stroke-width:1;"/><line style="stroke:#181818;stroke-width:1;" x1="266.8096" x2="266.8096" y1="401.2959" y2="421.2959"/><polygon fill="#181818" points="262.8096,411.2959,266.8096,421.2959,270.8096,411.2959,266.8096,415.2959" style="stroke:#181818;stroke-width:1;"/><line style="stroke:#181818;stroke-width:1;" x1="266.8096" x2="266.8096" y1="335.6167" y2="367.3271"/><polygon fill="#181818" points="262.8096,357.3271,266.8096,367.3271,270.8096,357.3271,266.8096,361.3271" style="stroke:#181818;stroke-width:1;"/><line style="stroke:#181818;stroke-width:1;" x1="266.8096" x2="266.8096" y1="706.2021" y2="726.2021"/><polygon fill="#181818" points="262.8096,716.2021,266.8096,726.2021,270.8096,716.2021,266.8096,720.2021" style="stroke:#181818;stroke-width:1;"/><line style="stroke:#181818;stroke-width:1;" x1="838.8965" x2="838.8965" y1="335.6167" y2="367.3271"/><polygon fill="#181818" points="834.8965,357.3271,838.8965,367.3271,842.8965,357.3271,838.8965,361.3271" style="stroke:#181818;stroke-width:1;"/><line style="stroke:#181818;stroke-width:1;" x1="838.8965" x2="838.8965" y1="401.2959" y2="726.2021"/><polygon fill="#181818" points="834.8965,716.2021,838.8965,726.2021,842.8965,716.2021,838.8965,720.2021" style="stroke:#181818;stroke-width:1;"/><line style="stroke:#181818;stroke-width:1;" x1="1030.0264" x2="1030.0264" y1="335.6167" y2="367.3271"/><polygon fill="#181818" points="1026.0264,357.3271,1030.0264,367.3271,1034.0264,357.3271,1030.0264,361.3271" style="stroke:#181818;stroke-width:1;"/><line style="stroke:#181818;stroke-width:1;" x1="1030.0264" x2="1030.0264" y1="401.2959" y2="726.2021"/><polygon fill="#181818" points="1026.0264,716.2021,1030.0264,726.2021,1034.0264,716.2021,1030.0264,720.2021" style="stroke:#181818;stroke-width:1;"/><line style="stroke:#181818;stroke-width:1;" x1="324.241" x2="772.1973" y1="323.6167" y2="323.6167"/><polygon fill="#181818" points="762.1973,319.6167,772.1973,323.6167,762.1973,327.6167,766.1973,323.6167" style="stroke:#181818;stroke-width:1;"/><line style="stroke:#181818;stroke-width:1;" x1="905.5957" x2="973.0596" y1="323.6167" y2="323.6167"/><polygon fill="#181818" points="963.0596,319.6167,973.0596,323.6167,963.0596,327.6167,967.0596,323.6167" style="stroke:#181818;stroke-width:1;"/><line style="stroke:#181818;stroke-width:1;" x1="653.1797" x2="653.1797" y1="279.9063" y2="296.6167"/><line style="stroke:#181818;stroke-width:1;" x1="653.1797" x2="266.8096" y1="296.6167" y2="296.6167"/><line style="stroke:#181818;stroke-width:1;" x1="266.8096" x2="266.8096" y1="296.6167" y2="311.6167"/><polygon fill="#181818" points="262.8096,301.6167,266.8096,311.6167,270.8096,301.6167,266.8096,305.6167" style="stroke:#181818;stroke-width:1;"/><line style="stroke:#181818;stroke-width:1;" x1="1086.9932" x2="1202.2773" y1="323.6167" y2="323.6167"/><line style="stroke:#181818;stroke-width:1;" x1="1202.2773" x2="1202.2773" y1="323.6167" y2="516.3779"/><polygon fill="#181818" points="1198.2773,506.3779,1202.2773,516.3779,1206.2773,506.3779,1202.2773,510.3779" style="stroke:#181818;stroke-width:1;"/><line style="stroke:#181818;stroke-width:1;" x1="1202.2773" x2="1202.2773" y1="550.3467" y2="726.2021"/><polygon fill="#181818" points="1198.2773,716.2021,1202.2773,726.2021,1206.2773,716.2021,1202.2773,720.2021" style="stroke:#181818;stroke-width:1;"/><line style="stroke:#181818;stroke-width:1;" x1="266.8096" x2="1202.2773" y1="726.2021" y2="726.2021"/><line style="stroke:#181818;stroke-width:1;" x1="749.718" x2="1295.8154" y1="267.9063" y2="267.9063"/><polygon fill="#181818" points="1291.8154,523.3623,1295.8154,533.3623,1299.8154,523.3623,1295.8154,527.3623" style="stroke:#181818;stroke-width:1;"/><line style="stroke:#181818;stroke-width:1;" x1="1295.8154" x2="1295.8154" y1="267.9063" y2="758.2021"/><line style="stroke:#181818;stroke-width:1;" x1="1295.8154" x2="665.1797" y1="758.2021" y2="758.2021"/><polygon fill="#181818" points="675.1797,754.2021,665.1797,758.2021,675.1797,762.2021,671.1797,758.2021" style="stroke:#181818;stroke-width:1;"/><line style="stroke:#181818;stroke-width:1;" x1="653.1797" x2="653.1797" y1="726.2021" y2="746.2021"/><polygon fill="#181818" points="649.1797,736.2021,653.1797,746.2021,657.1797,736.2021,653.1797,740.2021" style="stroke:#181818;stroke-width:1;"/><line style="stroke:#181818;stroke-width:1;" x1="653.1797" x2="653.1797" y1="235.9063" y2="255.9063"/><polygon fill="#181818" points="649.1797,245.9063,653.1797,255.9063,657.1797,245.9063,653.1797,249.9063" style="stroke:#181818;stroke-width:1;"/><line style="stroke:#181818;stroke-width:1;" x1="653.1797" x2="653.1797" y1="181.9375" y2="201.9375"/><polygon fill="#181818" points="649.1797,191.9375,653.1797,201.9375,657.1797,191.9375,653.1797,195.9375" style="stroke:#181818;stroke-width:1;"/><line style="stroke:#181818;stroke-width:1;" x1="733.9243" x2="1313.8154" y1="802.2021" y2="802.2021"/><polygon fill="#181818" points="1309.8154,508.8779,1313.8154,498.8779,1317.8154,508.8779,1313.8154,504.8779" style="stroke:#181818;stroke-width:1;"/><line style="stroke:#181818;stroke-width:1;" x1="1313.8154" x2="1313.8154" y1="169.9375" y2="802.2021"/><line style="stroke:#181818;stroke-width:1;" x1="1313.8154" x2="665.1797" y1="169.9375" y2="169.9375"/><polygon fill="#181818" points="675.1797,165.9375,665.1797,169.9375,675.1797,173.9375,671.1797,169.9375" style="stroke:#181818;stroke-width:1;"/><line style="stroke:#181818;stroke-width:1;" x1="653.1797" x2="653.1797" y1="770.2021" y2="790.2021"/><polygon fill="#181818" points="649.1797,780.2021,653.1797,790.2021,657.1797,780.2021,653.1797,784.2021" style="stroke:#181818;stroke-width:1;"/><line style="stroke:#181818;stroke-width:1;" x1="653.1797" x2="653.1797" y1="137.9375" y2="157.9375"/><polygon fill="#181818" points="649.1797,147.9375,653.1797,157.9375,657.1797,147.9375,653.1797,151.9375" style="stroke:#181818;stroke-width:1;"/><line style="stroke:#181818;stroke-width:1;" x1="578.7085" x2="538.7793" y1="846.2021" y2="846.2021"/><line style="stroke:#181818;stroke-width:1;" x1="538.7793" x2="538.7793" y1="846.2021" y2="868.2021"/><polygon fill="#181818" points="534.7793,858.2021,538.7793,868.2021,542.7793,858.2021,538.7793,862.2021" style="stroke:#181818;stroke-width:1;"/><line style="stroke:#181818;stroke-width:1;" x1="727.6509" x2="767.5801" y1="846.2021" y2="846.2021"/><line style="stroke:#181818;stroke-width:1;" x1="767.5801" x2="767.5801" y1="846.2021" y2="868.2021"/><polygon fill="#181818" points="763.5801,858.2021,767.5801,868.2021,771.5801,858.2021,767.5801,862.2021" style="stroke:#181818;stroke-width:1;"/><line style="stroke:#181818;stroke-width:1;" x1="538.7793" x2="538.7793" y1="902.1709" y2="920.1709"/><line style="stroke:#181818;stroke-width:1;" x1="538.7793" x2="641.1797" y1="920.1709" y2="920.1709"/><polygon fill="#181818" points="631.1797,916.1709,641.1797,920.1709,631.1797,924.1709,635.1797,920.1709" style="stroke:#181818;stroke-width:1;"/><line style="stroke:#181818;stroke-width:1;" x1="767.5801" x2="767.5801" y1="902.1709" y2="920.1709"/><line style="stroke:#181818;stroke-width:1;" x1="767.5801" x2="665.1797" y1="920.1709" y2="920.1709"/><polygon fill="#181818" points="675.1797,916.1709,665.1797,920.1709,675.1797,924.1709,671.1797,920.1709" style="stroke:#181818;stroke-width:1;"/><line style="stroke:#181818;stroke-width:1;" x1="653.1797" x2="653.1797" y1="814.2021" y2="834.2021"/><polygon fill="#181818" points="649.1797,824.2021,653.1797,834.2021,657.1797,824.2021,653.1797,828.2021" style="stroke:#181818;stroke-width:1;"/><line style="stroke:#181818;stroke-width:1;" x1="653.1797" x2="653.1797" y1="932.1709" y2="952.1709"/><polygon fill="#181818" points="649.1797,942.1709,653.1797,952.1709,657.1797,942.1709,653.1797,946.1709" style="stroke:#181818;stroke-width:1;"/><!--SRC=[ZLFBRi903BplLrYzD5pw0UHGLG6gg4r03IfdDnYmkjr5kuOgVzzDmaC1WffJ4dl6CtvuGITA3Jz87DEU8B76K2cyPwaoDBWc1sYMiE0L7xvZDPoGb1j0hG7to1g_D84X-RNksyTAETeIYeBm35z986z32MxnYpKBKyYgexo2w4RmpFey0DcGWQWYFsWW5p1W7xHD-7PYeo3PKFbTOqA9O8nWPfsWZZjPDMKtti_Oi6OOYXyy0teeMt2NbRGdY8ozWJzrl2ZI4UmyctMtoLU8auy6yODX1A5LZscQpj-i25RuytWDguqrWAm5tBTrbBPp1jxjcaqXAFIKJFDydCp7esl-VeizN8jqakRJ-JrAi-ILwl_JbBpOWOIqtcbqT_PWn7whiOA7p8P58nYXu74r7-Axx9-p_3_48Qs7i0Sm3PJk5kJajtrh3mf-DxNkABFkV6uW5ifwCvu7IjMoNqnrsajFEXmpBQ_53sUEZK1nI3XgY5Ltdl-QNwjHUR7RFm00]--></g></svg>